<svg xmlns="http://www.w3.org/2000/svg" width="256" height="256" viewBox="0 0 256 256" xml:space="preserve"><g style="stroke:none;stroke-width:0;stroke-dasharray:none;stroke-linecap:butt;stroke-linejoin:miter;stroke-miterlimit:10;fill:none;fill-rule:nonzero;opacity:1"><path d="M17.418.016q.053.004.107.011c.979.13 1.738.959 1.738 1.973v9.704a2 2 0 0 1-4 0V6.385c-4.224 4.317-6.945 9.85-7.78 15.943-1.029 7.506.929 14.955 5.508 20.987A28.2 28.2 0 0 0 27.42 53.316c1.111-8.229 5.362-16.031 12.483-21.437 10.258-7.788 18.323-6.538 22.112-3.101 3.889 3.527 4.116 9.518.581 15.262-1.712 2.782-4.223 5.44-7.464 7.9-6.883 5.225-15.387 7.457-23.949 6.285l-.055-.007a28.2 28.2 0 0 0 5.754 16.57c4.579 6.031 11.232 9.919 18.734 10.946s14.956-.929 20.987-5.507l.001-.001c2.845-2.159 5.024-4.451 6.476-6.811a2 2 0 0 1 3.406 2.096c-1.712 2.783-4.223 5.441-7.464 7.901l-.004.003c-6.882 5.223-15.385 7.453-23.944 6.281-8.561-1.172-16.153-5.608-21.377-12.49-4.491-5.915-6.659-12.896-6.57-19.798-6.889-1.848-12.939-5.9-17.321-11.673-4.316-5.685-6.59-12.477-6.59-19.492 0-1.478.101-2.967.305-4.456C4.447 15.02 7.419 8.865 12.019 4h-4.46a2 2 0 0 1 0-4h9.704c.053 0 .103.012.155.016m35.295 48.738c2.845-2.16 5.024-4.451 6.476-6.81 1.283-2.085 1.925-4.122 1.925-5.911 0-1.721-.595-3.212-1.787-4.293-2.864-2.598-9.233-2.577-17.008 3.324-6.339 4.812-10.082 11.791-10.983 19.128 7.31 1.103 15.039-.627 21.377-5.438" style="stroke:none;stroke-width:1;stroke-dasharray:none;stroke-linecap:butt;stroke-linejoin:miter;stroke-miterlimit:10;fill:#dcdcdc;fill-rule:nonzero;opacity:1" transform="translate(1.407 1.407)scale(2.81)"/></g></svg>